<?xml version="1.0" standalone="no"?>
<!DOCTYPE svg PUBLIC "-//W3C//DTD SVG 20010904//EN"
 "http://www.w3.org/TR/2001/REC-SVG-20010904/DTD/svg10.dtd">
<svg version="1.0" xmlns="http://www.w3.org/2000/svg"
 width="512.000000pt" height="512.000000pt" viewBox="0 0 512.000000 512.000000"
 preserveAspectRatio="xMidYMid meet">
<metadata>
Created by potrace 1.14, written by Peter Selinger 2001-2017
</metadata>
<g transform="translate(0.000000,512.000000) scale(0.100000,-0.100000)"
fill="#000000" stroke="none">
<path d="M750 5103 c-46 -19 -87 -59 -113 -108 l-21 -40 0 -2395 0 -2395 21
-41 c28 -53 82 -100 130 -113 26 -8 598 -11 1801 -11 1566 0 1767 2 1800 16
47 19 88 58 115 109 l21 40 0 1844 c1 1425 -2 1858 -11 1905 -7 33 -31 98 -52
143 -44 91 -55 103 -390 423 -229 218 -261 248 -392 374 -185 178 -235 210
-377 247 -72 18 -121 19 -1286 18 -1054 -1 -1216 -3 -1246 -16z m2360 -407
c50 -26 79 -55 103 -101 18 -37 20 -60 22 -265 2 -253 11 -293 77 -343 59 -46
80 -49 338 -51 266 -3 275 -4 334 -63 16 -15 37 -46 47 -68 18 -38 19 -107 19
-1575 0 -1465 -1 -1537 -19 -1575 -23 -51 -74 -101 -120 -117 -28 -10 -330
-13 -1371 -13 l-1335 0 -45 25 c-57 32 -98 92 -108 155 -4 28 -7 903 -6 1945
l1 1895 21 47 c25 54 75 98 129 114 26 7 323 10 958 10 878 -1 922 -2 955 -20z"/>
<path d="M1305 3239 c-38 -10 -90 -60 -103 -97 -22 -64 4 -143 60 -184 l33
-23 1213 -3 1214 -2 38 21 c54 31 84 88 78 151 -6 61 -31 96 -88 126 l-44 22
-1186 -1 c-652 0 -1199 -5 -1215 -10z"/>
<path d="M1329 2479 c-47 -7 -74 -24 -103 -62 -58 -77 -30 -187 59 -235 27
-15 145 -16 1224 -17 912 0 1202 2 1229 12 126 43 137 225 17 287 -39 20 -48
20 -1216 21 -647 0 -1191 -3 -1210 -6z"/>
<path d="M1596 1697 c-101 -57 -110 -195 -18 -265 l35 -27 892 -3 891 -2 44
23 c103 54 110 201 13 267 l-37 25 -890 2 -891 3 -39 -23z"/>
</g>
</svg>
